<svg width="301" height="50" viewBox="0 0 301 50" fill="none" xmlns="http://www.w3.org/2000/svg">
<path d="M93.04 33.336C92.0373 33.336 91.0613 33.272 90.112 33.144C89.1733 33.016 88.288 32.824 87.456 32.568V28.824C88.2987 29.08 89.1893 29.2773 90.128 29.416C91.0667 29.544 92.016 29.608 92.976 29.608C94.128 29.608 94.9387 29.4587 95.408 29.16C95.888 28.8507 96.128 28.424 96.128 27.88C96.128 27.4427 96.0107 27.112 95.776 26.888C95.5413 26.664 95.1307 26.4933 94.544 26.376L91.696 25.864C90.0533 25.5547 88.8587 24.984 88.112 24.152C87.3653 23.32 86.992 22.2053 86.992 20.808C86.992 19.1333 87.664 17.784 89.008 16.76C90.3627 15.736 92.4373 15.224 95.232 15.224C96.0853 15.224 96.912 15.272 97.712 15.368C98.5227 15.464 99.2533 15.5973 99.904 15.768V19.512C99.2213 19.32 98.496 19.176 97.728 19.08C96.96 18.984 96.176 18.936 95.376 18.936C94.4053 18.936 93.6587 19.0213 93.136 19.192C92.6133 19.352 92.2453 19.5653 92.032 19.832C91.8293 20.0987 91.728 20.3867 91.728 20.696C91.728 21.0693 91.8453 21.3733 92.08 21.608C92.3147 21.8427 92.72 22.024 93.296 22.152L96.144 22.664C97.7013 22.952 98.8747 23.4853 99.664 24.264C100.464 25.032 100.864 26.1787 100.864 27.704C100.864 29.4427 100.181 30.8187 98.816 31.832C97.4613 32.8347 95.536 33.336 93.04 33.336ZM112.376 33.336C110.179 33.336 108.371 33.0213 106.952 32.392C105.534 31.7627 104.478 30.776 103.784 29.432C103.102 28.088 102.76 26.3547 102.76 24.232C102.76 22.3013 103.075 20.664 103.704 19.32C104.344 17.976 105.267 16.9573 106.472 16.264C107.688 15.5707 109.16 15.224 110.888 15.224C112.542 15.224 113.934 15.576 115.064 16.28C116.195 16.9733 117.048 18.0027 117.624 19.368C118.2 20.7333 118.488 22.408 118.488 24.392V25.72H105.672V22.792H114.552L113.736 23.096C113.736 21.944 113.63 21.0267 113.416 20.344C113.203 19.6613 112.878 19.176 112.44 18.888C112.014 18.6 111.48 18.456 110.84 18.456C110.19 18.456 109.64 18.6 109.192 18.888C108.755 19.176 108.419 19.6613 108.184 20.344C107.96 21.016 107.848 21.928 107.848 23.08V25.128C107.848 26.2053 108.003 27.064 108.312 27.704C108.632 28.3333 109.171 28.7867 109.928 29.064C110.696 29.3413 111.752 29.48 113.096 29.48C113.779 29.48 114.494 29.432 115.24 29.336C115.998 29.2293 116.755 29.0907 117.512 28.92V32.744C116.584 32.9573 115.699 33.1067 114.856 33.192C114.024 33.288 113.198 33.336 112.376 33.336ZM127.598 40.36C126.67 40.36 125.7 40.3013 124.686 40.184C123.673 40.0773 122.692 39.896 121.742 39.64V35.656C122.724 35.9227 123.678 36.12 124.606 36.248C125.534 36.376 126.398 36.44 127.198 36.44C128.905 36.44 130.142 36.12 130.91 35.48C131.689 34.84 132.078 33.7733 132.078 32.28V31.128H131.838C131.337 31.7467 130.702 32.232 129.934 32.584C129.177 32.936 128.302 33.112 127.31 33.112C126.116 33.112 125.001 32.8133 123.966 32.216C122.932 31.608 122.094 30.68 121.454 29.432C120.825 28.1733 120.51 26.5627 120.51 24.6C120.51 21.5813 121.332 19.2667 122.974 17.656C124.617 16.0347 127.108 15.224 130.446 15.224C131.193 15.224 131.961 15.2613 132.75 15.336C133.55 15.4107 134.329 15.5227 135.086 15.672C135.844 15.8107 136.542 15.9867 137.182 16.2V31.352C137.182 34.52 136.393 36.8133 134.814 38.232C133.236 39.6507 130.83 40.36 127.598 40.36ZM129.246 28.968C129.758 28.968 130.265 28.8827 130.766 28.712C131.268 28.5307 131.705 28.264 132.078 27.912V19.304C131.801 19.24 131.481 19.1867 131.118 19.144C130.766 19.1013 130.393 19.08 129.998 19.08C128.59 19.08 127.513 19.4747 126.766 20.264C126.02 21.0427 125.646 22.344 125.646 24.168C125.646 25.4053 125.796 26.376 126.094 27.08C126.393 27.7733 126.809 28.264 127.342 28.552C127.886 28.8293 128.521 28.968 129.246 28.968ZM146.886 33.304C145.723 33.304 144.688 33.08 143.782 32.632C142.875 32.1733 142.16 31.4427 141.638 30.44C141.115 29.4373 140.854 28.1093 140.854 26.456V15.496H145.958V26.104C145.958 27.16 146.176 27.8907 146.614 28.296C147.062 28.7013 147.643 28.904 148.358 28.904C148.71 28.904 149.078 28.856 149.462 28.76C149.856 28.6533 150.23 28.4933 150.582 28.28C150.934 28.0667 151.243 27.8 151.51 27.48V15.496H156.598V33H152.406L152.054 31.24H151.83C151.168 31.912 150.416 32.424 149.574 32.776C148.731 33.128 147.835 33.304 146.886 33.304ZM160.404 33V15.496H164.58L164.964 17.752H165.22C165.711 16.888 166.361 16.2587 167.172 15.864C167.983 15.4587 168.873 15.256 169.844 15.256C170.111 15.256 170.367 15.2667 170.612 15.288C170.857 15.3093 171.076 15.3413 171.268 15.384V19.992C171.001 19.9387 170.713 19.9067 170.404 19.896C170.105 19.8747 169.817 19.864 169.54 19.864C169.039 19.864 168.532 19.928 168.02 20.056C167.508 20.1733 167.033 20.36 166.596 20.616C166.159 20.8613 165.791 21.1653 165.492 21.528V33H160.404ZM173.654 33V15.496H178.758V33H173.654ZM176.198 12.952C175.131 12.952 174.337 12.7173 173.814 12.248C173.302 11.7787 173.046 11.128 173.046 10.296C173.046 9.44267 173.302 8.78667 173.814 8.328C174.337 7.85867 175.131 7.624 176.198 7.624C177.275 7.624 178.07 7.85867 178.582 8.328C179.094 8.78667 179.35 9.44267 179.35 10.296C179.35 11.128 179.094 11.7787 178.582 12.248C178.07 12.7173 177.275 12.952 176.198 12.952ZM188.944 33.304C187.654 33.304 186.459 33.0107 185.36 32.424C184.272 31.8373 183.398 30.904 182.736 29.624C182.086 28.344 181.76 26.6747 181.76 24.616C181.76 22.5787 182.123 20.8613 182.848 19.464C183.574 18.0667 184.64 17.0107 186.048 16.296C187.467 15.5707 189.222 15.208 191.312 15.208C191.664 15.208 192.011 15.224 192.352 15.256C192.704 15.2773 193.03 15.304 193.328 15.336V7.144H198.432V33H194.144L193.84 31.16H193.6C193.099 31.8 192.454 32.3173 191.664 32.712C190.886 33.1067 189.979 33.304 188.944 33.304ZM190.448 29.144C190.971 29.144 191.488 29.048 192 28.856C192.523 28.664 192.966 28.3653 193.328 27.96V19.288C193.051 19.224 192.731 19.176 192.368 19.144C192.006 19.1013 191.648 19.08 191.296 19.08C189.835 19.08 188.736 19.4747 188 20.264C187.264 21.0427 186.896 22.36 186.896 24.216C186.896 25.4853 187.046 26.4773 187.344 27.192C187.643 27.9067 188.054 28.4133 188.576 28.712C189.11 29 189.734 29.144 190.448 29.144ZM207.032 33.32C205.24 33.32 203.842 32.856 202.84 31.928C201.848 30.9893 201.352 29.768 201.352 28.264C201.352 26.6107 201.922 25.32 203.064 24.392C204.216 23.464 206.072 22.9147 208.632 22.744L212.312 22.44L212.856 25.256L209.144 25.56C208.162 25.6347 207.453 25.8587 207.016 26.232C206.589 26.6053 206.376 27.1173 206.376 27.768C206.376 28.408 206.573 28.904 206.968 29.256C207.362 29.5973 207.938 29.768 208.696 29.768C209.165 29.768 209.645 29.688 210.136 29.528C210.626 29.3573 211.074 29.0693 211.48 28.664V22.264C211.48 21.464 211.346 20.8347 211.08 20.376C210.824 19.9173 210.402 19.592 209.816 19.4C209.24 19.1973 208.466 19.096 207.496 19.096C206.824 19.096 206.061 19.1547 205.208 19.272C204.354 19.3787 203.538 19.5547 202.76 19.8V15.96C203.613 15.7147 204.546 15.5333 205.56 15.416C206.584 15.288 207.533 15.224 208.408 15.224C210.264 15.224 211.784 15.4533 212.968 15.912C214.162 16.3707 215.042 17.1387 215.608 18.216C216.173 19.2827 216.456 20.7387 216.456 22.584V33H212.264L211.912 31.256H211.672C211.149 31.9707 210.482 32.4933 209.672 32.824C208.861 33.1547 207.981 33.32 207.032 33.32ZM226.507 33.304C225.216 33.304 224.021 33.0107 222.923 32.424C221.835 31.8373 220.96 30.904 220.299 29.624C219.648 28.344 219.323 26.6747 219.323 24.616C219.323 22.5787 219.685 20.8613 220.411 19.464C221.136 18.0667 222.203 17.0107 223.611 16.296C225.029 15.5707 226.784 15.208 228.875 15.208C229.227 15.208 229.573 15.224 229.915 15.256C230.267 15.2773 230.592 15.304 230.891 15.336V7.144H235.995V33H231.707L231.403 31.16H231.163C230.661 31.8 230.016 32.3173 229.227 32.712C228.448 33.1067 227.541 33.304 226.507 33.304ZM228.011 29.144C228.533 29.144 229.051 29.048 229.563 28.856C230.085 28.664 230.528 28.3653 230.891 27.96V19.288C230.613 19.224 230.293 19.176 229.931 19.144C229.568 19.1013 229.211 19.08 228.859 19.08C227.397 19.08 226.299 19.4747 225.563 20.264C224.827 21.0427 224.459 22.36 224.459 24.216C224.459 25.4853 224.608 26.4773 224.907 27.192C225.205 27.9067 225.616 28.4133 226.139 28.712C226.672 29 227.296 29.144 228.011 29.144ZM252.097 33L245.953 15.496H251.281L255.633 28.968H255.265L259.617 15.496H264.641L258.481 33H252.097ZM266.529 33V15.496H271.633V33H266.529ZM269.073 12.952C268.006 12.952 267.212 12.7173 266.689 12.248C266.177 11.7787 265.921 11.128 265.921 10.296C265.921 9.44267 266.177 8.78667 266.689 8.328C267.212 7.85867 268.006 7.624 269.073 7.624C270.15 7.624 270.945 7.85867 271.457 8.328C271.969 8.78667 272.225 9.44267 272.225 10.296C272.225 11.128 271.969 11.7787 271.457 12.248C270.945 12.7173 270.15 12.952 269.073 12.952ZM280.219 33.32C278.427 33.32 277.03 32.856 276.027 31.928C275.035 30.9893 274.539 29.768 274.539 28.264C274.539 26.6107 275.11 25.32 276.251 24.392C277.403 23.464 279.259 22.9147 281.819 22.744L285.499 22.44L286.043 25.256L282.331 25.56C281.35 25.6347 280.641 25.8587 280.203 26.232C279.777 26.6053 279.563 27.1173 279.563 27.768C279.563 28.408 279.761 28.904 280.155 29.256C280.55 29.5973 281.126 29.768 281.883 29.768C282.353 29.768 282.833 29.688 283.323 29.528C283.814 29.3573 284.262 29.0693 284.667 28.664V22.264C284.667 21.464 284.534 20.8347 284.267 20.376C284.011 19.9173 283.59 19.592 283.003 19.4C282.427 19.1973 281.654 19.096 280.683 19.096C280.011 19.096 279.249 19.1547 278.395 19.272C277.542 19.3787 276.726 19.5547 275.947 19.8V15.96C276.801 15.7147 277.734 15.5333 278.747 15.416C279.771 15.288 280.721 15.224 281.595 15.224C283.451 15.224 284.971 15.4533 286.155 15.912C287.35 16.3707 288.23 17.1387 288.795 18.216C289.361 19.2827 289.643 20.7387 289.643 22.584V33H285.451L285.099 31.256H284.859C284.337 31.9707 283.67 32.4933 282.859 32.824C282.049 33.1547 281.169 33.32 280.219 33.32ZM293.31 33V7.144H298.398V33H293.31Z" fill="black"/>
<path d="M26.1667 29.8542C25.4583 30.4167 25 31.3125 25 32.2917V43.75H39.5833C41.875 43.75 43.75 41.875 43.75 39.5833V27.125C41.7917 26.4375 39.6875 26.0417 37.5 26.0417C33.2708 26.0417 29.3125 27.5 26.1667 29.8542Z" fill="black"/>
<path d="M37.5 22.9167C43.253 22.9167 47.9167 18.253 47.9167 12.5C47.9167 6.74704 43.253 2.08334 37.5 2.08334C31.747 2.08334 27.0833 6.74704 27.0833 12.5C27.0833 18.253 31.747 22.9167 37.5 22.9167Z" fill="black"/>
<path d="M23.9583 12.5C23.9583 10.25 24.5208 8.125 25.5 6.25H10.4167C8.125 6.25 6.25 8.125 6.25 10.4167V39.5833C6.25 40.7292 6.72917 41.7708 7.47917 42.5208L27.9375 22.0625C26.6732 20.8121 25.6703 19.3227 24.9872 17.681C24.304 16.0393 23.9543 14.2782 23.9583 12.5Z" fill="black"/>
</svg>
